<?xml version="1.0" standalone="no"?>
<!DOCTYPE svg PUBLIC "-//W3C//DTD SVG 20010904//EN"
 "http://www.w3.org/TR/2001/REC-SVG-20010904/DTD/svg10.dtd">
<svg version="1.0" xmlns="http://www.w3.org/2000/svg"
 width="804.000000pt" height="804.000000pt" viewBox="0 0 804.000000 804.000000"
 preserveAspectRatio="xMidYMid meet">
<metadata>
Created by potrace 1.11, written by Peter Selinger 2001-2013
</metadata>
<g transform="translate(0.000000,804.000000) scale(0.100000,-0.100000)"
fill="#000000" stroke="none">
<path d="M3911 7816 l-43 -11 -3 -111 c-4 -178 -31 -272 -106 -371 -57 -76
-127 -124 -274 -190 -385 -172 -592 -326 -620 -460 -9 -42 1 -42 78 1 138 77
367 147 600 182 18 3 43 6 57 9 14 2 59 7 100 11 41 3 89 8 105 10 37 5 394 4
450 0 88 -7 173 -17 225 -26 30 -6 69 -12 85 -14 173 -24 425 -106 547 -180
88 -52 91 -53 83 -9 -24 135 -201 265 -702 517 -82 41 -163 88 -180 104 -76
73 -116 160 -127 272 -3 36 -9 92 -12 125 -9 95 -13 109 -31 123 -44 32 -149
40 -232 18z m279 -576 c62 -16 70 -26 70 -76 0 -36 -5 -47 -26 -61 -37 -24
-137 -40 -237 -38 -142 4 -206 30 -209 86 -3 64 0 68 55 83 28 8 63 16 77 18
54 8 227 0 270 -12z"/>
<path d="M3817 7145 c-4 -22 0 -28 22 -36 80 -31 286 -34 357 -5 35 15 40 20
36 42 -3 18 -9 23 -23 19 -85 -27 -271 -27 -370 1 -12 3 -18 -3 -22 -21z"/>
<path d="M3887 6824 c-1 -1 -47 -4 -102 -8 -55 -3 -111 -8 -125 -10 -14 -3
-72 -12 -130 -21 -58 -9 -132 -23 -165 -31 -33 -9 -68 -18 -79 -20 -98 -19
-309 -108 -393 -165 -95 -65 -162 -157 -163 -223 l0 -30 28 26 c15 14 54 43
87 65 182 121 428 208 715 253 41 6 86 13 100 16 104 16 424 23 570 11 375
-31 714 -130 930 -273 64 -42 81 -56 148 -118 l32 -30 -6 34 c-33 190 -263
351 -632 444 -105 27 -110 28 -252 50 -136 21 -234 29 -408 30 -84 1 -154 1
-155 0z"/>
<path d="M3808 6604 c-2 -2 -35 -6 -73 -10 -102 -9 -189 -20 -240 -30 -11 -3
-36 -7 -55 -10 -19 -3 -38 -8 -41 -10 -3 -2 -19 -5 -35 -8 -69 -12 -240 -69
-320 -106 -145 -67 -259 -163 -288 -244 -12 -34 -46 -210 -50 -265 -3 -29 -6
-54 -8 -56 -2 -1 -46 -26 -98 -56 -534 -298 -988 -775 -1252 -1314 -67 -137
-106 -235 -163 -405 l-52 -155 -354 0 -354 0 -3 -761 -2 -761 351 0 352 0 33
-109 c94 -313 208 -559 379 -819 379 -576 948 -1013 1596 -1223 102 -33 311
-87 373 -97 21 -3 41 -7 45 -9 3 -2 35 -7 71 -11 36 -4 67 -8 70 -10 28 -17
535 -26 664 -12 245 27 408 60 616 123 241 75 502 194 720 329 99 62 303 212
379 280 57 51 268 261 303 302 194 227 364 494 478 751 28 64 56 126 60 137
21 45 88 254 100 307 7 32 16 58 19 59 3 0 147 1 319 1 l312 1 -2 761 -3 761
-319 0 c-205 0 -320 4 -322 10 -11 47 -93 287 -121 355 -51 126 -151 320 -226
444 -67 108 -234 336 -303 411 -128 141 -274 280 -394 375 -36 28 -72 57 -82
65 -56 46 -294 194 -410 255 -76 39 -138 75 -139 78 0 4 -2 14 -4 22 -10 51
-17 90 -21 125 -11 90 -90 201 -194 272 -109 74 -298 150 -475 191 -121 28
-147 33 -260 47 -33 3 -71 9 -85 12 -29 6 -487 13 -492 7z m557 -497 c17 -3
57 -8 90 -12 32 -4 68 -9 80 -11 11 -3 38 -7 60 -10 71 -10 287 -65 400 -101
261 -85 480 -192 730 -358 203 -135 408 -313 575 -501 205 -229 386 -517 510
-809 45 -105 131 -356 125 -365 -2 -3 -193 -5 -425 -5 -366 0 -424 2 -431 15
-4 8 -33 67 -64 131 -209 438 -554 785 -990 999 -116 57 -334 141 -403 155 -9
2 -46 10 -82 18 -56 13 -100 21 -185 32 -88 13 -148 17 -265 17 -124 0 -264
-8 -300 -17 -8 -2 -35 -7 -60 -10 -125 -17 -345 -79 -475 -133 -159 -66 -366
-188 -514 -303 -93 -73 -294 -275 -363 -364 -108 -142 -224 -341 -284 -485
l-22 -55 -426 0 c-368 0 -426 2 -426 14 0 28 92 287 143 400 438 986 1378
1662 2442 1757 39 4 71 8 73 9 5 4 455 -3 487 -8z m-448 -977 c0 -49 -3 -90
-6 -91 -14 -2 -701 -4 -701 -1 0 5 107 49 180 74 169 58 287 85 450 104 30 3
57 8 59 10 13 12 18 -16 18 -96z m113 -15 l0 -115 143 0 c401 -1 556 -1 600 0
l47 0 0 45 c0 46 7 54 28 33 7 -7 12 -9 12 -5 0 4 8 3 18 -2 12 -7 18 -19 16
-40 l-2 -31 65 0 c52 0 78 -6 120 -27 34 -18 48 -29 39 -33 -9 -3 -164 -5
-346 -4 l-330 1 -1 -26 c0 -14 -1 -111 -2 -216 l0 -190 384 -1 c211 0 390 1
397 4 9 3 12 50 12 189 l0 186 33 -25 32 -26 5 -163 5 -164 173 0 172 0 26
-30 c75 -86 71 -73 70 -265 -1 -96 0 -181 2 -187 3 -9 35 -13 113 -13 l109 0
15 -36 c8 -20 15 -37 15 -38 0 -1 -3821 1 -3837 3 -9 1 -8 10 4 36 12 25 23
35 40 35 21 0 23 5 23 45 0 31 10 65 31 106 17 34 32 59 34 57 3 -2 5 -50 6
-106 l1 -102 394 0 394 0 0 215 c0 165 -3 215 -12 216 -7 0 -149 0 -315 1
-167 0 -303 4 -303 8 0 4 9 18 19 31 17 21 28 24 93 24 l73 0 0 75 c0 62 4 78
20 95 52 51 51 51 52 -43 1 -48 1 -96 2 -107 1 -20 6 -21 394 -20 l392 0 0
215 0 215 -242 0 c-132 0 -239 3 -237 7 9 14 133 75 136 66 3 -7 249 -10 698
-8 l95 0 0 108 c-1 59 0 110 2 115 2 4 20 7 39 7 l34 0 0 -115z m295 100 c92
-11 128 -18 205 -35 110 -26 250 -69 251 -78 6 -31 3 -62 -6 -63 -5 -1 -166
-2 -357 -3 l-348 -1 0 99 0 98 113 -6 c61 -4 126 -9 142 -11z m-855 -495 l0
-179 -357 2 -358 2 0 105 c0 119 -12 100 119 194 l78 56 259 0 259 0 0 -180z
m1720 0 l0 -180 -357 3 -358 2 -1 170 c0 94 1 173 3 178 2 4 164 7 359 7 l354
0 0 -180z m343 -89 c42 -42 77 -79 77 -83 0 -4 -61 -8 -135 -8 l-135 0 0 131
0 131 58 -48 c31 -26 92 -82 135 -123z m-2923 -51 c0 -33 -15 -44 -52 -38 -22
3 -22 3 7 35 37 41 45 41 45 3z m441 -180 c5 -27 3 -329 -2 -340 -6 -13 -55
-15 -353 -14 -191 1 -349 4 -352 7 -4 3 -6 58 -6 122 l1 115 40 57 40 58 316
0 c173 0 315 -2 316 -5z m2792 -158 c30 -48 66 -111 81 -140 29 -57 32 -54
-49 -54 -101 0 -90 -16 -90 142 0 77 1 140 2 140 1 0 26 -40 56 -88z m-2183
-626 c52 -34 73 -77 73 -146 0 -65 -14 -95 -89 -192 -29 -38 -54 -72 -54 -74
0 -6 25 -59 30 -64 3 -3 14 -22 25 -43 35 -66 41 -65 66 18 18 56 27 74 39 70
8 -2 32 -7 53 -11 20 -3 37 -12 37 -18 0 -21 -31 -119 -52 -163 -24 -52 -20
-66 27 -89 35 -16 36 -18 33 -68 -3 -50 -4 -51 -32 -49 -16 1 -51 16 -77 32
-34 21 -49 26 -52 16 -9 -21 -108 -65 -149 -65 -174 0 -236 194 -123 380 19
32 35 63 35 69 0 6 -9 30 -20 54 -63 137 -66 226 -9 308 48 68 164 85 239 35z
m-1205 -23 c40 -21 82 -68 95 -107 5 -17 11 -61 13 -96 l2 -65 -65 0 -65 0 -1
57 c-2 87 -42 129 -102 107 -41 -15 -45 -42 -44 -274 0 -297 -1 -281 24 -305
25 -23 46 -25 83 -8 29 13 36 34 38 115 l2 58 63 1 c70 1 65 8 64 -92 -1 -70
-11 -102 -48 -149 -44 -58 -132 -85 -208 -64 -53 14 -115 77 -130 129 -9 32
-12 120 -11 305 1 230 3 264 20 298 47 98 172 140 270 90z m2621 4 c43 -22 91
-80 103 -122 5 -20 9 -152 8 -303 -2 -289 -1 -283 -62 -350 -30 -33 -106 -64
-142 -57 -10 2 -27 4 -39 4 -39 2 -111 59 -133 107 -20 43 -21 59 -21 323 l1
279 30 46 c53 85 169 118 255 73z m-4019 -2 c85 -29 131 -94 138 -192 5 -73
-10 -126 -48 -163 l-30 -30 27 -21 c80 -63 93 -251 23 -342 -45 -59 -84 -70
-239 -73 l-138 -2 0 419 0 419 116 -1 c64 -1 132 -7 151 -14z m599 -13 c63
-32 85 -86 88 -210 3 -111 -5 -152 -41 -204 l-25 -37 42 -163 c23 -90 43 -170
44 -178 1 -11 -13 -14 -63 -15 -70 0 -67 -3 -86 80 -10 48 -14 63 -28 120 -8
33 -18 72 -21 88 -6 24 -11 27 -50 27 l-43 0 -1 -132 c0 -207 8 -185 -62 -185
l-60 0 0 419 0 418 133 -3 c112 -3 138 -6 173 -25z m372 -387 c0 -303 -3 -415
-11 -418 -7 -2 -34 -4 -62 -3 l-50 1 -1 410 c0 226 1 413 3 417 2 3 30 7 62 7
l59 0 0 -414z m786 266 c-1 -167 -6 -168 90 18 l66 128 65 2 c36 1 65 0 65 -3
0 -2 -38 -79 -85 -170 l-85 -167 100 -244 c55 -135 100 -246 100 -248 0 -2
-32 -3 -72 -3 l-72 1 -29 75 c-16 41 -35 89 -42 105 -6 17 -22 58 -35 93 -12
34 -24 62 -26 62 -2 0 -11 -15 -21 -32 -13 -26 -17 -62 -18 -168 l-1 -135 -62
-1 -62 0 0 417 0 418 63 -2 62 -2 -1 -144z m1436 145 c0 -2 16 -82 35 -179 19
-96 36 -184 38 -194 2 -10 12 -64 22 -120 10 -57 20 -102 21 -100 3 2 24 112
84 428 l32 166 83 2 c60 1 84 -2 86 -11 4 -11 3 -735 0 -803 -1 -18 -8 -21
-61 -21 l-60 -1 -1 166 c0 91 0 206 1 256 1 49 -1 87 -3 85 -4 -4 -18 -65 -62
-280 -48 -235 -44 -225 -93 -226 -22 -1 -45 2 -50 5 -7 5 -15 38 -47 181 -28
127 -71 300 -76 300 -3 0 -5 -102 -4 -227 0 -126 -1 -235 -3 -243 -2 -11 -18
-15 -63 -16 l-59 -2 0 418 0 418 90 0 c50 0 90 -1 90 -2z m1355 -13 c90 -31
118 -98 112 -267 -3 -100 -5 -109 -35 -151 -26 -37 -30 -49 -22 -70 5 -14 12
-36 14 -48 2 -12 18 -77 35 -144 17 -67 31 -126 31 -131 0 -9 -130 -12 -131
-3 0 3 -17 74 -37 156 l-38 150 -42 3 -42 3 -1 -38 c0 -21 -1 -92 -2 -158 l-2
-119 -60 -1 -61 -2 2 416 c0 229 2 417 3 418 7 9 244 -2 276 -14z m625 -47 l0
-63 -52 0 c-29 0 -60 -1 -68 -2 -14 -1 -15 -44 -15 -347 0 -190 -2 -349 -5
-354 -3 -4 -30 -7 -60 -6 l-55 1 -3 353 c-2 326 -4 352 -20 353 -9 1 -38 1
-64 1 -28 1 -48 6 -49 12 -1 15 -1 89 0 103 1 8 55 11 196 11 l195 0 0 -62z
m324 49 c3 -8 8 -37 12 -63 3 -26 10 -66 15 -90 5 -24 11 -60 14 -80 3 -20 7
-48 10 -62 3 -14 8 -41 11 -60 3 -19 12 -71 19 -115 8 -44 17 -98 20 -120 3
-22 8 -51 11 -65 9 -52 12 -66 19 -116 l6 -50 -59 0 c-33 1 -63 3 -66 6 -3 3
-10 37 -16 75 -18 120 -11 111 -82 109 -78 -2 -74 -1 -74 -21 -1 -19 -11 -89
-20 -139 -6 -31 -6 -31 -70 -30 -35 1 -64 1 -64 2 0 1 5 26 10 55 11 55 14 76
24 139 3 19 15 89 26 155 12 66 23 132 25 147 2 15 9 53 14 85 26 146 41 236
41 246 0 4 38 7 84 7 66 0 85 -3 90 -15z m552 -1 c90 -31 118 -95 113 -258 -4
-109 -6 -117 -34 -158 l-31 -43 23 -90 c12 -49 31 -127 42 -173 12 -46 21 -87
21 -91 0 -4 -29 -7 -64 -7 l-64 0 -39 155 -38 156 -42 3 -42 3 -3 -158 -3
-158 -60 0 -60 0 -1 405 c0 223 2 411 4 418 6 17 226 14 278 -4z m-5069 -1183
c16 -1 25 -11 34 -38 19 -62 104 -231 165 -333 306 -509 831 -880 1406 -994
182 -36 197 -38 398 -41 255 -4 436 20 655 87 39 12 75 22 80 24 30 6 178 71
272 118 113 56 252 144 362 229 89 68 303 285 373 377 114 152 233 360 289
507 22 57 27 63 54 64 40 1 797 1 812 0 13 -1 11 -12 -24 -131 -31 -105 -106
-296 -164 -415 -253 -528 -675 -982 -1189 -1281 -203 -118 -486 -238 -685
-289 -16 -5 -34 -10 -40 -11 -59 -19 -310 -67 -405 -78 -270 -32 -578 -24
-840 20 -129 22 -138 23 -240 49 -385 98 -738 268 -1060 511 -127 95 -164 128
-305 269 -145 143 -174 177 -261 292 -235 310 -401 642 -508 1010 l-15 52 52
3 c42 2 706 1 784 -1z m153 0 c12 -1 15 -16 15 -71 0 -38 -3 -70 -6 -70 -7 0
-59 123 -59 139 0 5 8 8 18 6 9 -2 24 -4 32 -4z m118 -84 c1 -48 1 -126 0
-175 l-3 -87 -32 55 c-32 56 -36 86 -34 250 1 44 2 45 33 44 l33 -1 3 -86z
m747 84 c6 -1 10 -65 10 -176 l0 -175 -357 0 -358 0 0 28 c-1 59 -2 269 -1
297 l1 30 347 -2 c192 -1 353 -2 358 -2z m109 -211 l-1 -179 396 2 396 2 0
193 c0 105 4 192 8 192 4 0 21 0 37 0 l30 0 0 -194 0 -195 395 0 395 1 0 194
0 194 38 0 37 0 0 -192 0 -193 395 -2 395 -2 0 194 c-1 189 0 194 20 198 50 9
51 5 51 -198 l0 -190 32 -3 32 -3 -22 -30 -22 -30 -166 1 c-91 1 -190 1 -221
1 l-56 -1 0 -215 c0 -185 2 -215 15 -215 12 0 12 -4 -4 -21 -35 -40 -70 -46
-251 -44 -112 0 -174 -3 -176 -10 -2 -5 -3 -52 -2 -102 2 -97 0 -104 -46 -122
l-26 -9 2 111 c0 62 -1 117 -2 122 -2 7 -139 10 -391 9 -213 -1 -390 -2 -394
-3 -4 0 -7 -72 -7 -158 0 -256 4 -232 -31 -229 -16 1 -33 5 -36 9 -4 4 -8 91
-8 195 l-1 187 -385 1 c-212 0 -390 -3 -395 -7 -6 -4 -10 -45 -9 -94 1 -83 0
-85 -20 -79 -47 15 -52 26 -51 104 l0 75 -100 1 c-157 2 -159 2 -195 33 l-34
28 372 -1 372 -1 0 218 0 217 -80 1 c-44 0 -109 0 -145 0 -36 0 -177 0 -315 0
l-250 -1 0 -195 c0 -107 -4 -195 -8 -195 -5 0 -19 11 -31 24 -22 23 -23 32
-25 193 l-1 168 -100 3 c-55 1 -122 2 -150 3 -42 0 -53 4 -68 25 -11 14 -17
28 -14 30 3 3 174 5 381 5 l376 0 1 97 c0 53 0 141 0 194 l0 97 27 3 c19 2 28
-2 32 -15 3 -10 4 -99 4 -197z m722 211 l31 -1 0 -175 -1 -175 -355 2 -356 3
-2 172 -1 172 36 3 c31 2 547 2 648 -1z m874 0 l25 -1 -2 -157 c-1 -87 -2
-166 -2 -175 -1 -17 -25 -18 -356 -18 l-355 0 -1 23 c-1 21 0 115 1 259 0 54
3 67 17 70 13 2 576 1 673 -1z m866 0 c19 -1 20 -6 20 -176 l0 -175 -358 0
-358 0 0 174 c0 173 0 175 23 178 18 2 603 2 673 -1z m371 0 l23 -1 -24 -52
c-48 -109 -71 -155 -110 -226 -35 -63 -44 -72 -66 -70 l-25 3 0 170 c0 125 3
171 12 175 10 4 68 4 190 1z m-3360 -495 c7 -7 7 -245 0 -252 -2 -3 -11 1 -18
9 -111 115 -209 229 -209 243 0 10 217 10 227 0z m848 5 c6 -1 10 -67 10 -176
0 -109 -4 -175 -10 -176 -34 -4 -705 -3 -706 1 0 9 -1 294 0 325 l1 30 347 -2
c192 -1 353 -2 358 -2z m2255 -5 c0 -23 -197 -241 -292 -323 -20 -17 -45 -30
-55 -29 -16 3 -18 18 -21 182 l-2 179 185 0 c102 0 185 -4 185 -9z m-2662
-539 l3 -47 -48 26 c-26 15 -55 33 -64 40 -8 8 -21 14 -27 14 -7 0 -12 4 -12
9 0 5 33 9 72 8 l73 -2 3 -48z m862 -124 l0 -175 -62 7 c-111 11 -141 16 -257
41 -109 25 -257 71 -351 112 l-45 19 1 84 c1 46 2 85 3 85 0 1 161 2 356 2
l355 0 0 -175z m866 64 l-1 -111 -69 -24 c-177 -61 -407 -102 -596 -106 l-45
-1 -3 176 -2 176 358 0 358 0 0 -110z m376 78 c-45 -30 -214 -125 -223 -125
-11 0 -6 146 4 152 7 4 69 7 139 6 l127 -2 -47 -31z"/>
<path d="M4285 5826 c-17 -7 -36 -21 -44 -30 -12 -14 -11 -20 9 -41 l22 -23
32 19 c38 23 54 24 76 4 39 -35 5 -79 -124 -158 -48 -30 -60 -42 -62 -66 -4
-34 -1 -36 96 -46 143 -15 160 -16 161 -8 5 34 5 54 0 57 -3 2 -33 7 -66 11
-33 3 -61 8 -63 10 -2 2 20 19 50 38 61 40 97 73 99 90 6 52 4 76 -8 100 -25
50 -113 72 -178 43z"/>
<path d="M3400 5777 c-69 -16 -127 -31 -129 -33 -2 -2 0 -19 3 -38 6 -33 9
-34 31 -26 14 5 25 7 25 5 0 -2 11 0 25 5 25 10 33 4 40 -27 2 -10 15 -68 30
-129 l27 -112 35 8 c19 5 36 10 38 12 2 1 -10 57 -26 123 -16 66 -29 127 -29
137 0 11 12 18 38 23 20 3 42 9 48 13 14 9 -2 69 -18 69 -7 -1 -69 -14 -138
-30z"/>
<path d="M4744 5736 c-92 -40 -140 -175 -95 -268 25 -54 69 -81 131 -82 64 -1
113 33 146 102 50 100 19 212 -68 247 -47 18 -73 19 -114 1z m113 -93 c20 -30
13 -105 -14 -142 -31 -41 -61 -52 -94 -36 -33 18 -38 30 -34 90 6 100 97 157
142 88z"/>
<path d="M2973 5640 c-83 -28 -114 -100 -73 -167 24 -39 51 -47 135 -39 51 5
67 3 80 -10 15 -16 15 -18 -5 -38 -16 -17 -33 -21 -79 -21 -58 0 -59 -1 -69
-33 -9 -30 -8 -33 14 -38 14 -4 46 -4 72 -2 120 12 182 91 137 178 -19 37 -43
45 -140 45 -69 0 -80 2 -83 18 -6 28 27 46 81 47 30 0 47 4 48 13 0 6 2 22 5
35 3 16 -1 22 -14 23 -9 0 -27 2 -39 3 -13 2 -44 -5 -70 -14z"/>
<path d="M5146 5588 c-16 -52 -15 -59 15 -65 16 -3 29 -7 29 -9 0 -2 -25 -56
-55 -119 -30 -64 -55 -120 -55 -125 0 -6 52 -30 67 -30 2 0 16 28 32 63 16 34
49 105 74 157 l46 95 -25 13 c-14 7 -44 15 -67 18 -22 3 -45 7 -49 10 -4 3
-10 -1 -12 -8z"/>
<path d="M3743 5563 c-30 -4 -32 -6 -28 -40 4 -41 19 -55 51 -43 12 5 25 6 29
2 4 -4 5 13 3 37 -4 48 -6 50 -55 44z"/>
<path d="M2555 5418 c-61 -39 -112 -72 -114 -74 -2 -2 2 -11 10 -20 7 -9 18
-25 24 -35 35 -64 151 -238 158 -239 5 0 58 32 118 71 l108 71 -16 26 c-9 15
-18 29 -19 30 -1 2 -39 -20 -84 -48 -44 -29 -82 -51 -83 -49 -2 2 -11 16 -20
31 l-16 26 68 44 c68 44 68 44 54 71 -7 15 -18 27 -23 27 -5 0 -38 -18 -72
-40 l-63 -40 -17 21 c-10 12 -18 26 -18 33 0 6 34 31 75 55 41 25 75 47 75 50
0 4 -8 18 -18 33 l-18 27 -109 -71z"/>
<path d="M5469 5379 c-67 -34 -129 -129 -129 -196 0 -96 108 -163 197 -123 30
13 44 27 56 58 18 45 16 69 -9 107 -18 28 -87 69 -98 58 -3 -4 -6 -1 -6 5 0
15 33 32 64 32 16 0 35 -12 54 -35 27 -34 31 -35 58 -23 16 6 30 13 32 14 2 1
-4 16 -12 33 -39 74 -136 107 -207 70z m36 -173 c25 -25 25 -44 2 -73 -24 -32
-97 3 -97 46 0 25 26 51 51 51 11 0 31 -11 44 -24z"/>
<path d="M2327 5076 c-15 -12 -16 -15 -2 -26 20 -17 41 1 29 23 -8 13 -12 13
-27 3z"/>
<path d="M5715 5070 c-4 -6 -1 -17 5 -25 9 -11 15 -12 25 -2 9 8 10 16 3 25
-13 15 -25 15 -33 2z"/>
<path d="M2241 4996 c-10 -12 -8 -17 7 -25 16 -8 21 -7 26 5 12 31 -12 45 -33
20z"/>
<path d="M5800 4995 c-20 -24 4 -45 26 -24 13 14 13 17 1 27 -11 10 -17 9 -27
-3z"/>
<path d="M2164 4919 c-3 -6 -1 -16 4 -21 13 -13 45 8 36 23 -7 12 -31 11 -40
-2z"/>
<path d="M5871 4916 c-9 -10 -7 -16 5 -27 13 -10 17 -10 24 1 9 14 3 40 -10
40 -4 0 -13 -6 -19 -14z"/>
<path d="M2096 4844 c-4 -9 -2 -22 4 -28 7 -7 14 -6 22 2 10 10 9 16 -4 28
-14 14 -16 14 -22 -2z"/>
<path d="M5943 4834 c-8 -21 16 -36 32 -21 9 8 10 16 3 25 -14 17 -27 15 -35
-4z"/>
<path d="M2025 4760 c-4 -6 -1 -18 6 -26 11 -14 13 -14 21 0 15 26 -12 51 -27
26z"/>
<path d="M6020 4754 c-9 -10 -10 -18 -2 -26 12 -12 32 -2 32 17 0 21 -16 26
-30 9z"/>
<path d="M1959 4674 c-10 -13 -10 -17 1 -24 14 -9 40 -3 40 10 0 4 -6 13 -14
19 -10 9 -16 7 -27 -5z"/>
<path d="M6083 4672 c-18 -11 1 -36 22 -28 9 3 15 11 13 18 -5 15 -20 20 -35
10z"/>
<path d="M1896 4583 c-8 -19 14 -37 28 -23 10 10 1 40 -13 40 -5 0 -12 -8 -15
-17z"/>
<path d="M6143 4582 c-8 -5 -8 -11 2 -25 11 -15 14 -15 25 -3 19 24 -1 45 -27
28z"/>
<path d="M1842 4498 c-16 -16 -15 -25 2 -31 21 -8 40 17 23 31 -10 9 -17 8
-25 0z"/>
<path d="M6203 4494 c-18 -8 -4 -34 18 -34 21 0 22 1 13 24 -6 17 -11 18 -31
10z"/>
<path d="M1777 4396 c-7 -17 22 -31 36 -17 5 5 6 14 3 20 -10 16 -33 14 -39
-3z"/>
<path d="M6262 4402 c-17 -11 -4 -42 14 -35 8 3 14 14 14 24 0 20 -8 23 -28
11z"/>
<path d="M1731 4307 c-16 -16 7 -41 25 -26 8 6 14 15 14 19 0 14 -27 19 -39 7z"/>
<path d="M6306 4302 c-2 -4 -1 -14 4 -21 11 -19 41 -6 34 14 -6 16 -29 20 -38
7z"/>
<path d="M1683 4204 c-7 -18 17 -38 31 -24 11 11 1 40 -14 40 -6 0 -13 -7 -17
-16z"/>
<path d="M6361 4211 c-15 -9 -8 -41 8 -41 15 0 23 18 14 34 -5 10 -13 12 -22
7z"/>
<path d="M1643 4104 c-8 -21 19 -38 30 -18 9 16 1 34 -14 34 -5 0 -12 -7 -16
-16z"/>
<path d="M3570 4720 l0 -215 395 0 c262 0 395 3 396 10 6 84 2 415 -6 417 -5
0 -184 2 -397 3 l-388 1 0 -216z m755 3 l0 -178 -357 -3 -358 -2 0 180 0 180
358 0 357 0 0 -177z"/>
<path d="M3172 4440 c-17 -5 -18 -19 -19 -217 l0 -213 396 0 396 0 1 215 0
215 -26 0 c-190 4 -733 4 -748 0z m735 -213 c2 -132 -1 -177 -10 -178 -46 -3
-676 -4 -689 -1 -16 4 -18 21 -18 176 0 95 2 175 4 177 3 2 163 4 358 4 l353
0 2 -178z"/>
<path d="M4037 4442 c-15 -3 -17 -25 -17 -218 l0 -214 395 0 395 0 1 43 c2
158 0 380 -5 384 -5 6 -741 10 -769 5z m728 -41 c6 -1 10 -67 10 -176 0 -168
-1 -175 -20 -176 -129 -6 -688 -2 -693 5 -4 7 -7 351 -3 351 13 1 699 -3 706
-4z"/>
<path d="M4904 4442 c-20 -3 -20 -8 -20 -217 l1 -215 392 0 c216 0 394 3 394
8 1 4 2 99 3 211 1 158 -2 205 -12 208 -14 6 -723 10 -758 5z m732 -214 c0
-118 -4 -178 -10 -179 -35 -3 -674 -4 -688 -1 -15 4 -17 22 -17 181 l0 176
358 0 357 0 0 -177z"/>
<path d="M3516 3528 c-24 -36 -27 -78 -10 -135 15 -52 34 -77 42 -55 2 7 9 18
16 25 55 56 71 122 40 165 -21 30 -69 30 -88 0z"/>
<path d="M3491 3050 c-40 -87 -18 -163 48 -163 18 0 41 9 55 22 l23 22 -41 64
c-22 35 -46 71 -53 82 -10 16 -13 13 -32 -27z"/>
<path d="M4953 3483 c-15 -8 -31 -20 -35 -26 -4 -7 -8 -126 -8 -265 l0 -253
26 -26 c20 -20 31 -24 57 -19 62 13 62 11 63 292 1 233 0 257 -17 278 -24 31
-51 37 -86 19z"/>
<path d="M945 3480 c-18 -7 -20 -16 -20 -105 1 -106 6 -116 59 -108 46 7 76
41 80 92 5 56 -12 98 -44 110 -47 17 -55 18 -75 11z"/>
<path d="M928 3143 c-3 -7 -2 -168 1 -229 1 -16 7 -20 31 -18 17 1 41 5 54 8
71 18 85 174 19 225 -25 21 -98 30 -105 14z"/>
<path d="M1473 3345 l1 -135 40 0 c94 0 110 22 110 147 0 77 -2 87 -23 104
-16 13 -39 19 -76 19 l-52 0 0 -135z"/>
<path d="M5449 3455 c0 -14 0 -68 0 -120 0 -52 0 -102 0 -110 1 -11 14 -15 51
-15 40 0 56 5 75 24 22 22 23 31 22 119 -2 114 -11 126 -94 127 -50 0 -53 -2
-54 -25z"/>
<path d="M6456 3345 c-4 -38 -9 -77 -11 -85 -13 -68 -25 -163 -21 -168 2 -4
22 -7 43 -6 54 3 55 3 49 13 -3 4 -8 35 -12 67 -3 32 -7 61 -9 64 -2 3 -6 33
-10 66 -3 34 -10 74 -14 90 -6 24 -9 18 -15 -41z"/>
<path d="M6950 3345 l0 -135 50 0 c41 0 56 5 76 25 25 25 26 30 22 121 -4 113
-12 124 -95 124 l-53 0 0 -135z"/>
<path d="M1748 2087 c-64 -34 -119 -65 -123 -68 -10 -11 62 -145 92 -173 15
-15 36 -26 45 -26 34 0 68 23 78 55 9 27 14 31 38 27 37 -5 75 26 78 65 2 30
-64 175 -82 179 -5 2 -62 -25 -126 -59z m140 -105 c-6 -30 -40 -19 -64 20
l-24 37 28 15 c26 14 27 13 45 -21 10 -19 17 -42 15 -51z m-109 -19 c20 -41
21 -48 7 -61 -21 -21 -40 -10 -65 38 -21 40 -21 43 -4 56 29 22 38 17 62 -33z"/>
<path d="M6215 2060 c-16 -31 -15 -33 15 -91 20 -39 26 -59 18 -60 -7 0 -37
-1 -66 -2 -48 -2 -55 -5 -74 -36 l-21 -33 104 5 c102 5 107 5 157 -23 l53 -29
16 26 c19 29 22 25 -55 76 -23 15 -49 50 -78 106 -25 47 -46 87 -49 89 -2 2
-11 -10 -20 -28z"/>
<path d="M1940 1743 c-63 -47 -114 -90 -112 -95 2 -6 9 -19 16 -29 12 -17 14
-17 50 7 35 24 40 25 54 10 14 -14 14 -20 -3 -69 -18 -54 -18 -55 2 -88 l21
-33 15 36 c8 19 18 45 22 57 5 18 12 21 40 15 38 -7 89 15 106 47 24 46 20 66
-32 143 -27 41 -53 77 -57 80 -4 2 -59 -34 -122 -81z m136 -43 c28 -42 27 -62
-5 -79 -17 -9 -25 -6 -50 21 -17 18 -31 37 -31 43 0 7 48 53 57 55 2 0 15 -18
29 -40z"/>
<path d="M6005 1724 c-9 -14 -15 -27 -13 -28 4 -3 111 -88 123 -98 5 -5 -41
-8 -103 -7 -106 2 -112 1 -130 -21 l-19 -24 116 -92 116 -93 17 22 c10 12 18
25 18 29 0 3 -29 30 -65 58 -36 28 -65 53 -65 55 0 3 51 3 113 1 107 -4 113
-3 129 19 17 22 16 23 -65 88 -45 36 -95 77 -112 91 -37 32 -39 32 -60 0z"/>
<path d="M2187 1438 c-53 -51 -97 -98 -99 -105 -3 -12 138 -163 152 -163 4 0
12 11 19 24 12 21 9 27 -40 75 l-53 52 23 22 22 22 33 -35 c55 -60 63 -64 81
-47 22 22 20 28 -29 77 -41 42 -44 46 -29 62 9 10 19 18 23 18 4 0 31 -23 59
-52 l52 -52 21 22 22 22 -74 75 c-41 41 -77 75 -81 75 -3 0 -49 -42 -102 -92z"/>
<path d="M5666 1361 c-17 -19 -16 -25 23 -143 23 -68 47 -136 54 -152 l12 -28
25 20 c23 19 24 23 12 54 -12 32 -12 34 33 75 45 42 47 43 75 28 16 -8 31 -15
33 -15 7 0 47 37 47 43 0 4 -24 17 -52 31 -29 13 -93 42 -141 65 -49 23 -92
41 -96 41 -5 0 -16 -9 -25 -19z m120 -128 c-31 -29 -29 -29 -45 16 -17 51 -15
53 30 30 l42 -21 -27 -25z"/>
<path d="M2496 1248 c-8 -29 -27 -95 -42 -147 l-27 -95 23 -18 c22 -18 23 -18
54 5 17 12 54 40 82 60 l52 37 -29 -97 c-21 -74 -25 -99 -16 -106 30 -20 46
-26 49 -19 2 4 56 46 120 94 l118 87 -26 20 c-15 11 -29 19 -33 17 -3 -2 -37
-29 -76 -60 -38 -30 -71 -53 -73 -51 -2 2 8 42 22 88 14 47 26 89 26 94 0 5
-11 15 -24 22 -22 12 -30 8 -99 -43 -42 -31 -78 -56 -81 -56 -2 0 9 41 26 92
l31 91 -23 19 c-12 10 -26 18 -30 18 -5 0 -15 -24 -24 -52z"/>
<path d="M5378 1136 l-66 -43 82 -125 83 -125 27 19 26 20 -21 34 -21 35 46
43 c41 38 46 47 46 85 0 34 -6 49 -29 72 -44 43 -89 40 -173 -15z m128 -41
c16 -25 16 -27 -11 -55 -16 -17 -34 -30 -39 -30 -6 0 -21 16 -33 34 l-22 35
32 20 c42 27 53 26 73 -4z"/>
<path d="M5158 1008 c-16 -5 -28 -17 -29 -26 0 -9 -3 -28 -5 -42 -3 -14 -7
-36 -8 -50 -2 -14 -4 -29 -5 -33 0 -4 -27 10 -60 32 -54 37 -61 39 -90 28 -17
-6 -31 -14 -31 -18 0 -7 93 -217 112 -252 8 -16 11 -17 37 -1 l28 17 -29 61
c-15 33 -33 69 -38 79 -15 25 -1 21 60 -18 l55 -36 8 48 c16 104 16 104 43 43
14 -30 29 -67 35 -82 6 -16 15 -28 21 -28 16 0 48 20 48 30 0 16 -112 260
-119 259 -3 0 -18 -5 -33 -11z"/>
<path d="M2925 870 l-65 -130 30 -15 30 -15 64 130 65 130 -22 15 c-12 8 -25
15 -29 15 -4 0 -37 -58 -73 -130z"/>
<path d="M3128 770 c-28 -86 -42 -140 -35 -140 7 0 22 -3 33 -6 20 -5 25 3 49
76 15 45 29 80 31 78 2 -2 19 -48 39 -103 19 -54 36 -99 37 -100 2 -1 13 -8
26 -14 26 -14 22 -20 83 157 l38 113 -25 9 c-14 6 -29 10 -33 10 -4 0 -18 -34
-31 -76 -13 -41 -27 -77 -30 -79 -3 -2 -21 43 -39 100 -33 102 -42 115 -86
115 -5 0 -31 -63 -57 -140z"/>
<path d="M4670 832 c-80 -24 -130 -82 -130 -152 0 -155 200 -211 287 -80 44
63 23 163 -42 206 -28 19 -92 33 -115 26z m83 -87 c31 -32 38 -64 21 -103 -24
-58 -93 -70 -138 -26 -42 43 -33 124 17 144 40 16 74 11 100 -15z"/>
<path d="M3643 780 c-50 -12 -83 -38 -103 -83 -51 -113 20 -218 147 -217 75 1
96 17 108 89 13 69 14 67 -69 77 l-52 6 -2 -31 c-2 -28 0 -31 29 -31 26 0 30
-3 27 -22 -2 -18 -11 -24 -37 -26 -44 -4 -77 13 -91 49 -24 58 16 129 73 129
29 0 67 -16 78 -32 3 -5 19 1 34 15 l28 24 -29 20 c-26 19 -53 29 -94 38 -8 1
-30 -1 -47 -5z"/>
<path d="M4269 760 c-42 -12 -66 -28 -88 -59 -45 -63 -30 -166 31 -211 57 -42
161 -36 204 11 17 19 17 20 -4 41 -20 21 -22 21 -40 4 -77 -69 -189 24 -136
113 26 44 86 58 123 28 10 -9 18 -6 32 12 25 31 24 36 -8 50 -38 15 -83 20
-114 11z"/>
<path d="M3644 1962 l-41 -3 0 -210 c0 -183 2 -211 16 -217 19 -9 753 -8 767
0 9 6 12 413 2 423 -5 6 -674 12 -744 7z m697 -41 c14 -1 16 -22 17 -158 0
-87 -1 -167 -3 -178 -4 -20 -11 -20 -352 -19 -191 1 -351 2 -355 3 -4 1 -7 79
-7 175 1 171 1 175 22 178 19 3 630 2 678 -1z"/>
<path d="M4518 1962 l-48 -3 0 -215 c0 -197 1 -214 18 -215 23 -1 709 -1 745
0 l27 1 0 215 0 215 -162 0 c-90 1 -246 2 -348 3 -102 1 -206 1 -232 -1z m693
-44 c11 -4 14 -41 14 -179 l-1 -173 -357 -1 -357 0 0 176 c0 97 2 178 4 180 6
6 681 3 697 -3z"/>
</g>
</svg>
